<mxfile host="app.diagrams.net" modified="2022-12-22T08:30:09.610Z" agent="5.0 (X11)" etag="ovBPOqxmuCyWl-SplxGD" version="20.7.4" type="github" pages="2">
  <diagram id="T7bfVNvf7ElkoNfCoqG0" name="model">
    <mxGraphModel dx="1434" dy="790" grid="1" gridSize="10" guides="1" tooltips="1" connect="1" arrows="1" fold="1" page="1" pageScale="1" pageWidth="850" pageHeight="1100" math="0" shadow="0">
      <root>
        <mxCell id="0" />
        <mxCell id="1" parent="0" />
        <mxCell id="-DJLVohTGllw6iuGMW7L-1" value="folder" style="swimlane;fontStyle=1;align=center;verticalAlign=top;childLayout=stackLayout;horizontal=1;startSize=26;horizontalStack=0;resizeParent=1;resizeParentMax=0;resizeLast=0;collapsible=1;marginBottom=0;" parent="1" vertex="1">
          <mxGeometry x="330" y="20" width="160" height="190" as="geometry" />
        </mxCell>
        <mxCell id="-DJLVohTGllw6iuGMW7L-2" value="id" style="text;strokeColor=none;fillColor=none;align=left;verticalAlign=top;spacingLeft=4;spacingRight=4;overflow=hidden;rotatable=0;points=[[0,0.5],[1,0.5]];portConstraint=eastwest;" parent="-DJLVohTGllw6iuGMW7L-1" vertex="1">
          <mxGeometry y="26" width="160" height="26" as="geometry" />
        </mxCell>
        <mxCell id="-DJLVohTGllw6iuGMW7L-3" value="status" style="text;strokeColor=none;fillColor=none;align=left;verticalAlign=top;spacingLeft=4;spacingRight=4;overflow=hidden;rotatable=0;points=[[0,0.5],[1,0.5]];portConstraint=eastwest;" parent="-DJLVohTGllw6iuGMW7L-1" vertex="1">
          <mxGeometry y="52" width="160" height="26" as="geometry" />
        </mxCell>
        <mxCell id="S6ciX6xiWAGYy36Lwhgl-1" value="path signed folder" style="text;strokeColor=none;fillColor=none;align=left;verticalAlign=top;spacingLeft=4;spacingRight=4;overflow=hidden;rotatable=0;points=[[0,0.5],[1,0.5]];portConstraint=eastwest;" parent="-DJLVohTGllw6iuGMW7L-1" vertex="1">
          <mxGeometry y="78" width="160" height="26" as="geometry" />
        </mxCell>
        <mxCell id="-DJLVohTGllw6iuGMW7L-4" value="" style="line;strokeWidth=1;fillColor=none;align=left;verticalAlign=middle;spacingTop=-1;spacingLeft=3;spacingRight=3;rotatable=0;labelPosition=right;points=[];portConstraint=eastwest;strokeColor=inherit;" parent="-DJLVohTGllw6iuGMW7L-1" vertex="1">
          <mxGeometry y="104" width="160" height="8" as="geometry" />
        </mxCell>
        <mxCell id="kRHtf4cz5r2pWqYyENHT-2" value="getFolder(id)" style="text;strokeColor=none;fillColor=none;align=left;verticalAlign=top;spacingLeft=4;spacingRight=4;overflow=hidden;rotatable=0;points=[[0,0.5],[1,0.5]];portConstraint=eastwest;" parent="-DJLVohTGllw6iuGMW7L-1" vertex="1">
          <mxGeometry y="112" width="160" height="26" as="geometry" />
        </mxCell>
        <mxCell id="kRHtf4cz5r2pWqYyENHT-3" value="setFolderStatus(id, state)" style="text;strokeColor=none;fillColor=none;align=left;verticalAlign=top;spacingLeft=4;spacingRight=4;overflow=hidden;rotatable=0;points=[[0,0.5],[1,0.5]];portConstraint=eastwest;" parent="-DJLVohTGllw6iuGMW7L-1" vertex="1">
          <mxGeometry y="138" width="160" height="26" as="geometry" />
        </mxCell>
        <mxCell id="kRHtf4cz5r2pWqYyENHT-4" value="getFoldersNotConcluded()" style="text;strokeColor=none;fillColor=none;align=left;verticalAlign=top;spacingLeft=4;spacingRight=4;overflow=hidden;rotatable=0;points=[[0,0.5],[1,0.5]];portConstraint=eastwest;" parent="-DJLVohTGllw6iuGMW7L-1" vertex="1">
          <mxGeometry y="164" width="160" height="26" as="geometry" />
        </mxCell>
        <mxCell id="-DJLVohTGllw6iuGMW7L-5" value="document" style="swimlane;fontStyle=1;align=center;verticalAlign=top;childLayout=stackLayout;horizontal=1;startSize=26;horizontalStack=0;resizeParent=1;resizeParentMax=0;resizeLast=0;collapsible=1;marginBottom=0;" parent="1" vertex="1">
          <mxGeometry x="620" y="200" width="160" height="112" as="geometry" />
        </mxCell>
        <mxCell id="-DJLVohTGllw6iuGMW7L-6" value="path" style="text;strokeColor=none;fillColor=none;align=left;verticalAlign=top;spacingLeft=4;spacingRight=4;overflow=hidden;rotatable=0;points=[[0,0.5],[1,0.5]];portConstraint=eastwest;" parent="-DJLVohTGllw6iuGMW7L-5" vertex="1">
          <mxGeometry y="26" width="160" height="26" as="geometry" />
        </mxCell>
        <mxCell id="-DJLVohTGllw6iuGMW7L-7" value="anchor" style="text;strokeColor=none;fillColor=none;align=left;verticalAlign=top;spacingLeft=4;spacingRight=4;overflow=hidden;rotatable=0;points=[[0,0.5],[1,0.5]];portConstraint=eastwest;" parent="-DJLVohTGllw6iuGMW7L-5" vertex="1">
          <mxGeometry y="52" width="160" height="26" as="geometry" />
        </mxCell>
        <mxCell id="-DJLVohTGllw6iuGMW7L-8" value="visible sign" style="text;strokeColor=none;fillColor=none;align=left;verticalAlign=top;spacingLeft=4;spacingRight=4;overflow=hidden;rotatable=0;points=[[0,0.5],[1,0.5]];portConstraint=eastwest;" parent="-DJLVohTGllw6iuGMW7L-5" vertex="1">
          <mxGeometry y="78" width="160" height="26" as="geometry" />
        </mxCell>
        <mxCell id="-DJLVohTGllw6iuGMW7L-9" value="" style="line;strokeWidth=1;fillColor=none;align=left;verticalAlign=middle;spacingTop=-1;spacingLeft=3;spacingRight=3;rotatable=0;labelPosition=right;points=[];portConstraint=eastwest;strokeColor=inherit;" parent="-DJLVohTGllw6iuGMW7L-5" vertex="1">
          <mxGeometry y="104" width="160" height="8" as="geometry" />
        </mxCell>
        <mxCell id="-DJLVohTGllw6iuGMW7L-10" value="signer" style="swimlane;fontStyle=1;align=center;verticalAlign=top;childLayout=stackLayout;horizontal=1;startSize=26;horizontalStack=0;resizeParent=1;resizeParentMax=0;resizeLast=0;collapsible=1;marginBottom=0;" parent="1" vertex="1">
          <mxGeometry x="290" y="500" width="160" height="164" as="geometry" />
        </mxCell>
        <mxCell id="-DJLVohTGllw6iuGMW7L-11" value="name" style="text;strokeColor=none;fillColor=none;align=left;verticalAlign=top;spacingLeft=4;spacingRight=4;overflow=hidden;rotatable=0;points=[[0,0.5],[1,0.5]];portConstraint=eastwest;" parent="-DJLVohTGllw6iuGMW7L-10" vertex="1">
          <mxGeometry y="26" width="160" height="26" as="geometry" />
        </mxCell>
        <mxCell id="-DJLVohTGllw6iuGMW7L-12" value="user:boolean" style="text;strokeColor=none;fillColor=none;align=left;verticalAlign=top;spacingLeft=4;spacingRight=4;overflow=hidden;rotatable=0;points=[[0,0.5],[1,0.5]];portConstraint=eastwest;" parent="-DJLVohTGllw6iuGMW7L-10" vertex="1">
          <mxGeometry y="52" width="160" height="26" as="geometry" />
        </mxCell>
        <mxCell id="-DJLVohTGllw6iuGMW7L-13" value="phone" style="text;strokeColor=none;fillColor=none;align=left;verticalAlign=top;spacingLeft=4;spacingRight=4;overflow=hidden;rotatable=0;points=[[0,0.5],[1,0.5]];portConstraint=eastwest;" parent="-DJLVohTGllw6iuGMW7L-10" vertex="1">
          <mxGeometry y="78" width="160" height="26" as="geometry" />
        </mxCell>
        <mxCell id="-DJLVohTGllw6iuGMW7L-14" value="email" style="text;strokeColor=none;fillColor=none;align=left;verticalAlign=top;spacingLeft=4;spacingRight=4;overflow=hidden;rotatable=0;points=[[0,0.5],[1,0.5]];portConstraint=eastwest;" parent="-DJLVohTGllw6iuGMW7L-10" vertex="1">
          <mxGeometry y="104" width="160" height="26" as="geometry" />
        </mxCell>
        <mxCell id="-DJLVohTGllw6iuGMW7L-15" value="surname" style="text;strokeColor=none;fillColor=none;align=left;verticalAlign=top;spacingLeft=4;spacingRight=4;overflow=hidden;rotatable=0;points=[[0,0.5],[1,0.5]];portConstraint=eastwest;" parent="-DJLVohTGllw6iuGMW7L-10" vertex="1">
          <mxGeometry y="130" width="160" height="26" as="geometry" />
        </mxCell>
        <mxCell id="-DJLVohTGllw6iuGMW7L-16" value="" style="line;strokeWidth=1;fillColor=none;align=left;verticalAlign=middle;spacingTop=-1;spacingLeft=3;spacingRight=3;rotatable=0;labelPosition=right;points=[];portConstraint=eastwest;strokeColor=inherit;" parent="-DJLVohTGllw6iuGMW7L-10" vertex="1">
          <mxGeometry y="156" width="160" height="8" as="geometry" />
        </mxCell>
        <mxCell id="-DJLVohTGllw6iuGMW7L-17" value="revisioner" style="swimlane;fontStyle=1;align=center;verticalAlign=top;childLayout=stackLayout;horizontal=1;startSize=26;horizontalStack=0;resizeParent=1;resizeParentMax=0;resizeLast=0;collapsible=1;marginBottom=0;" parent="1" vertex="1">
          <mxGeometry x="80" y="464" width="160" height="164" as="geometry" />
        </mxCell>
        <mxCell id="-DJLVohTGllw6iuGMW7L-18" value="name" style="text;strokeColor=none;fillColor=none;align=left;verticalAlign=top;spacingLeft=4;spacingRight=4;overflow=hidden;rotatable=0;points=[[0,0.5],[1,0.5]];portConstraint=eastwest;" parent="-DJLVohTGllw6iuGMW7L-17" vertex="1">
          <mxGeometry y="26" width="160" height="26" as="geometry" />
        </mxCell>
        <mxCell id="-DJLVohTGllw6iuGMW7L-19" value="surname" style="text;strokeColor=none;fillColor=none;align=left;verticalAlign=top;spacingLeft=4;spacingRight=4;overflow=hidden;rotatable=0;points=[[0,0.5],[1,0.5]];portConstraint=eastwest;" parent="-DJLVohTGllw6iuGMW7L-17" vertex="1">
          <mxGeometry y="52" width="160" height="26" as="geometry" />
        </mxCell>
        <mxCell id="-DJLVohTGllw6iuGMW7L-20" value="email" style="text;strokeColor=none;fillColor=none;align=left;verticalAlign=top;spacingLeft=4;spacingRight=4;overflow=hidden;rotatable=0;points=[[0,0.5],[1,0.5]];portConstraint=eastwest;" parent="-DJLVohTGllw6iuGMW7L-17" vertex="1">
          <mxGeometry y="78" width="160" height="26" as="geometry" />
        </mxCell>
        <mxCell id="-DJLVohTGllw6iuGMW7L-21" value="phone" style="text;strokeColor=none;fillColor=none;align=left;verticalAlign=top;spacingLeft=4;spacingRight=4;overflow=hidden;rotatable=0;points=[[0,0.5],[1,0.5]];portConstraint=eastwest;" parent="-DJLVohTGllw6iuGMW7L-17" vertex="1">
          <mxGeometry y="104" width="160" height="26" as="geometry" />
        </mxCell>
        <mxCell id="-DJLVohTGllw6iuGMW7L-22" value="user:boolean" style="text;strokeColor=none;fillColor=none;align=left;verticalAlign=top;spacingLeft=4;spacingRight=4;overflow=hidden;rotatable=0;points=[[0,0.5],[1,0.5]];portConstraint=eastwest;" parent="-DJLVohTGllw6iuGMW7L-17" vertex="1">
          <mxGeometry y="130" width="160" height="26" as="geometry" />
        </mxCell>
        <mxCell id="-DJLVohTGllw6iuGMW7L-23" value="" style="line;strokeWidth=1;fillColor=none;align=left;verticalAlign=middle;spacingTop=-1;spacingLeft=3;spacingRight=3;rotatable=0;labelPosition=right;points=[];portConstraint=eastwest;strokeColor=inherit;" parent="-DJLVohTGllw6iuGMW7L-17" vertex="1">
          <mxGeometry y="156" width="160" height="8" as="geometry" />
        </mxCell>
        <mxCell id="-DJLVohTGllw6iuGMW7L-24" value="step" style="swimlane;fontStyle=1;align=center;verticalAlign=top;childLayout=stackLayout;horizontal=1;startSize=26;horizontalStack=0;resizeParent=1;resizeParentMax=0;resizeLast=0;collapsible=1;marginBottom=0;" parent="1" vertex="1">
          <mxGeometry x="290" y="220" width="160" height="60" as="geometry" />
        </mxCell>
        <mxCell id="-DJLVohTGllw6iuGMW7L-25" value="order" style="text;strokeColor=none;fillColor=none;align=left;verticalAlign=top;spacingLeft=4;spacingRight=4;overflow=hidden;rotatable=0;points=[[0,0.5],[1,0.5]];portConstraint=eastwest;" parent="-DJLVohTGllw6iuGMW7L-24" vertex="1">
          <mxGeometry y="26" width="160" height="26" as="geometry" />
        </mxCell>
        <mxCell id="-DJLVohTGllw6iuGMW7L-26" value="" style="line;strokeWidth=1;fillColor=none;align=left;verticalAlign=middle;spacingTop=-1;spacingLeft=3;spacingRight=3;rotatable=0;labelPosition=right;points=[];portConstraint=eastwest;strokeColor=inherit;" parent="-DJLVohTGllw6iuGMW7L-24" vertex="1">
          <mxGeometry y="52" width="160" height="8" as="geometry" />
        </mxCell>
        <mxCell id="-DJLVohTGllw6iuGMW7L-27" value="coordinate" style="swimlane;fontStyle=1;align=center;verticalAlign=top;childLayout=stackLayout;horizontal=1;startSize=26;horizontalStack=0;resizeParent=1;resizeParentMax=0;resizeLast=0;collapsible=1;marginBottom=0;" parent="1" vertex="1">
          <mxGeometry x="640" y="600" width="160" height="138" as="geometry" />
        </mxCell>
        <mxCell id="-DJLVohTGllw6iuGMW7L-28" value="x" style="text;strokeColor=none;fillColor=none;align=left;verticalAlign=top;spacingLeft=4;spacingRight=4;overflow=hidden;rotatable=0;points=[[0,0.5],[1,0.5]];portConstraint=eastwest;" parent="-DJLVohTGllw6iuGMW7L-27" vertex="1">
          <mxGeometry y="26" width="160" height="26" as="geometry" />
        </mxCell>
        <mxCell id="-DJLVohTGllw6iuGMW7L-29" value="y" style="text;strokeColor=none;fillColor=none;align=left;verticalAlign=top;spacingLeft=4;spacingRight=4;overflow=hidden;rotatable=0;points=[[0,0.5],[1,0.5]];portConstraint=eastwest;" parent="-DJLVohTGllw6iuGMW7L-27" vertex="1">
          <mxGeometry y="52" width="160" height="26" as="geometry" />
        </mxCell>
        <mxCell id="-DJLVohTGllw6iuGMW7L-30" value="cx" style="text;strokeColor=none;fillColor=none;align=left;verticalAlign=top;spacingLeft=4;spacingRight=4;overflow=hidden;rotatable=0;points=[[0,0.5],[1,0.5]];portConstraint=eastwest;" parent="-DJLVohTGllw6iuGMW7L-27" vertex="1">
          <mxGeometry y="78" width="160" height="26" as="geometry" />
        </mxCell>
        <mxCell id="-DJLVohTGllw6iuGMW7L-31" value="cy" style="text;strokeColor=none;fillColor=none;align=left;verticalAlign=top;spacingLeft=4;spacingRight=4;overflow=hidden;rotatable=0;points=[[0,0.5],[1,0.5]];portConstraint=eastwest;" parent="-DJLVohTGllw6iuGMW7L-27" vertex="1">
          <mxGeometry y="104" width="160" height="26" as="geometry" />
        </mxCell>
        <mxCell id="-DJLVohTGllw6iuGMW7L-32" value="" style="line;strokeWidth=1;fillColor=none;align=left;verticalAlign=middle;spacingTop=-1;spacingLeft=3;spacingRight=3;rotatable=0;labelPosition=right;points=[];portConstraint=eastwest;strokeColor=inherit;" parent="-DJLVohTGllw6iuGMW7L-27" vertex="1">
          <mxGeometry y="130" width="160" height="8" as="geometry" />
        </mxCell>
        <mxCell id="-DJLVohTGllw6iuGMW7L-33" value="1" style="endArrow=open;html=1;endSize=12;startArrow=diamondThin;startSize=14;startFill=1;edgeStyle=orthogonalEdgeStyle;align=left;verticalAlign=bottom;rounded=0;exitX=0.5;exitY=1;exitDx=0;exitDy=0;entryX=0.5;entryY=0;entryDx=0;entryDy=0;" parent="1" source="-DJLVohTGllw6iuGMW7L-24" target="-DJLVohTGllw6iuGMW7L-10" edge="1">
          <mxGeometry x="-0.8182" y="10" relative="1" as="geometry">
            <mxPoint x="340" y="430" as="sourcePoint" />
            <mxPoint x="500" y="430" as="targetPoint" />
            <mxPoint as="offset" />
          </mxGeometry>
        </mxCell>
        <mxCell id="-DJLVohTGllw6iuGMW7L-34" value="1" style="endArrow=open;html=1;endSize=12;startArrow=diamondThin;startSize=14;startFill=1;edgeStyle=orthogonalEdgeStyle;align=left;verticalAlign=bottom;rounded=0;exitX=0.25;exitY=1;exitDx=0;exitDy=0;entryX=0.5;entryY=0;entryDx=0;entryDy=0;" parent="1" source="-DJLVohTGllw6iuGMW7L-1" target="-DJLVohTGllw6iuGMW7L-24" edge="1">
          <mxGeometry x="-1" y="3" relative="1" as="geometry">
            <mxPoint x="350" y="440" as="sourcePoint" />
            <mxPoint x="510" y="440" as="targetPoint" />
          </mxGeometry>
        </mxCell>
        <mxCell id="-DJLVohTGllw6iuGMW7L-35" value="1" style="endArrow=open;html=1;endSize=12;startArrow=diamondThin;startSize=14;startFill=1;edgeStyle=orthogonalEdgeStyle;align=left;verticalAlign=bottom;rounded=0;exitX=1;exitY=0.5;exitDx=0;exitDy=0;entryX=0.006;entryY=0.071;entryDx=0;entryDy=0;entryPerimeter=0;" parent="1" source="-DJLVohTGllw6iuGMW7L-24" target="-DJLVohTGllw6iuGMW7L-5" edge="1">
          <mxGeometry x="-1" y="3" relative="1" as="geometry">
            <mxPoint x="416.96000000000004" y="118.00199999999995" as="sourcePoint" />
            <mxPoint x="560" y="370" as="targetPoint" />
          </mxGeometry>
        </mxCell>
        <mxCell id="-DJLVohTGllw6iuGMW7L-36" value="" style="endArrow=none;startArrow=none;endFill=0;startFill=0;endSize=8;html=1;verticalAlign=bottom;labelBackgroundColor=none;strokeWidth=3;rounded=0;exitX=1.006;exitY=0.104;exitDx=0;exitDy=0;exitPerimeter=0;entryX=0.75;entryY=1;entryDx=0;entryDy=0;" parent="1" source="-DJLVohTGllw6iuGMW7L-10" target="-DJLVohTGllw6iuGMW7L-5" edge="1">
          <mxGeometry width="160" relative="1" as="geometry">
            <mxPoint x="340" y="430" as="sourcePoint" />
            <mxPoint x="744" y="288.00199999999995" as="targetPoint" />
            <Array as="points">
              <mxPoint x="744" y="514" />
            </Array>
          </mxGeometry>
        </mxCell>
        <mxCell id="-DJLVohTGllw6iuGMW7L-37" value="" style="endArrow=none;startArrow=none;endFill=0;startFill=0;endSize=8;html=1;verticalAlign=bottom;dashed=1;labelBackgroundColor=none;dashPattern=10 10;rounded=0;entryX=0.5;entryY=0;entryDx=0;entryDy=0;" parent="1" target="-DJLVohTGllw6iuGMW7L-27" edge="1">
          <mxGeometry width="160" relative="1" as="geometry">
            <mxPoint x="720" y="520" as="sourcePoint" />
            <mxPoint x="490" y="430" as="targetPoint" />
          </mxGeometry>
        </mxCell>
        <mxCell id="-DJLVohTGllw6iuGMW7L-38" value="attachments" style="swimlane;fontStyle=1;align=center;verticalAlign=top;childLayout=stackLayout;horizontal=1;startSize=26;horizontalStack=0;resizeParent=1;resizeParentMax=0;resizeLast=0;collapsible=1;marginBottom=0;" parent="1" vertex="1">
          <mxGeometry x="870" y="200" width="160" height="60" as="geometry" />
        </mxCell>
        <mxCell id="-DJLVohTGllw6iuGMW7L-39" value="path" style="text;strokeColor=none;fillColor=none;align=left;verticalAlign=top;spacingLeft=4;spacingRight=4;overflow=hidden;rotatable=0;points=[[0,0.5],[1,0.5]];portConstraint=eastwest;" parent="-DJLVohTGllw6iuGMW7L-38" vertex="1">
          <mxGeometry y="26" width="160" height="26" as="geometry" />
        </mxCell>
        <mxCell id="-DJLVohTGllw6iuGMW7L-40" value="" style="line;strokeWidth=1;fillColor=none;align=left;verticalAlign=middle;spacingTop=-1;spacingLeft=3;spacingRight=3;rotatable=0;labelPosition=right;points=[];portConstraint=eastwest;strokeColor=inherit;" parent="-DJLVohTGllw6iuGMW7L-38" vertex="1">
          <mxGeometry y="52" width="160" height="8" as="geometry" />
        </mxCell>
        <mxCell id="-DJLVohTGllw6iuGMW7L-41" value="1" style="endArrow=open;html=1;endSize=12;startArrow=diamondThin;startSize=14;startFill=1;edgeStyle=orthogonalEdgeStyle;align=left;verticalAlign=bottom;rounded=0;entryX=0.463;entryY=-0.012;entryDx=0;entryDy=0;entryPerimeter=0;exitX=0;exitY=0.25;exitDx=0;exitDy=0;" parent="1" source="-DJLVohTGllw6iuGMW7L-24" target="-DJLVohTGllw6iuGMW7L-17" edge="1">
          <mxGeometry x="-0.945" y="-18" relative="1" as="geometry">
            <mxPoint x="260" y="300" as="sourcePoint" />
            <mxPoint x="380" y="510" as="targetPoint" />
            <Array as="points">
              <mxPoint x="280" y="235" />
              <mxPoint x="280" y="410" />
              <mxPoint x="154" y="410" />
            </Array>
            <mxPoint x="8" y="-15" as="offset" />
          </mxGeometry>
        </mxCell>
        <mxCell id="-DJLVohTGllw6iuGMW7L-42" value="1" style="endArrow=open;html=1;endSize=12;startArrow=diamondThin;startSize=14;startFill=1;edgeStyle=orthogonalEdgeStyle;align=left;verticalAlign=bottom;rounded=0;entryX=0.5;entryY=0;entryDx=0;entryDy=0;exitX=1;exitY=0.25;exitDx=0;exitDy=0;" parent="1" source="-DJLVohTGllw6iuGMW7L-1" target="-DJLVohTGllw6iuGMW7L-38" edge="1">
          <mxGeometry x="-1" y="3" relative="1" as="geometry">
            <mxPoint x="412" y="116" as="sourcePoint" />
            <mxPoint x="710" y="210" as="targetPoint" />
          </mxGeometry>
        </mxCell>
        <mxCell id="kRHtf4cz5r2pWqYyENHT-1" value="&lt;div&gt;state values&lt;/div&gt;&lt;div&gt;1:draft&lt;/div&gt;&lt;div&gt;2:ongoing&lt;/div&gt;&lt;div&gt;3:aborted&lt;/div&gt;&lt;div&gt;4:signed&lt;br&gt;&lt;/div&gt;" style="text;html=1;align=center;verticalAlign=middle;resizable=0;points=[];autosize=1;strokeColor=none;fillColor=none;" parent="1" vertex="1">
          <mxGeometry x="210" y="42" width="90" height="90" as="geometry" />
        </mxCell>
      </root>
    </mxGraphModel>
  </diagram>
  <diagram id="KqOt-DQpSMueSsDkeepK" name="model-implementation">
    <mxGraphModel dx="1434" dy="1922" grid="1" gridSize="10" guides="1" tooltips="1" connect="1" arrows="1" fold="1" page="1" pageScale="1" pageWidth="850" pageHeight="1100" math="0" shadow="0">
      <root>
        <mxCell id="0" />
        <mxCell id="1" parent="0" />
        <mxCell id="ao9kE8kJPDlWj9Jmwbzh-1" value="folder" style="swimlane;fontStyle=1;align=center;verticalAlign=top;childLayout=stackLayout;horizontal=1;startSize=26;horizontalStack=0;resizeParent=1;resizeParentMax=0;resizeLast=0;collapsible=1;marginBottom=0;" parent="1" vertex="1">
          <mxGeometry x="330" y="20" width="160" height="190" as="geometry" />
        </mxCell>
        <mxCell id="ao9kE8kJPDlWj9Jmwbzh-2" value="id" style="text;strokeColor=none;fillColor=none;align=left;verticalAlign=top;spacingLeft=4;spacingRight=4;overflow=hidden;rotatable=0;points=[[0,0.5],[1,0.5]];portConstraint=eastwest;" parent="ao9kE8kJPDlWj9Jmwbzh-1" vertex="1">
          <mxGeometry y="26" width="160" height="26" as="geometry" />
        </mxCell>
        <mxCell id="ao9kE8kJPDlWj9Jmwbzh-3" value="status" style="text;strokeColor=none;fillColor=none;align=left;verticalAlign=top;spacingLeft=4;spacingRight=4;overflow=hidden;rotatable=0;points=[[0,0.5],[1,0.5]];portConstraint=eastwest;" parent="ao9kE8kJPDlWj9Jmwbzh-1" vertex="1">
          <mxGeometry y="52" width="160" height="26" as="geometry" />
        </mxCell>
        <mxCell id="nnpxaQtFNOXXuuiEsasc-1" value="path signed folder" style="text;strokeColor=none;fillColor=none;align=left;verticalAlign=top;spacingLeft=4;spacingRight=4;overflow=hidden;rotatable=0;points=[[0,0.5],[1,0.5]];portConstraint=eastwest;" parent="ao9kE8kJPDlWj9Jmwbzh-1" vertex="1">
          <mxGeometry y="78" width="160" height="26" as="geometry" />
        </mxCell>
        <mxCell id="nBGJO_raQ8_k4aFmYe3T-1" value="created at" style="text;strokeColor=none;fillColor=none;align=left;verticalAlign=top;spacingLeft=4;spacingRight=4;overflow=hidden;rotatable=0;points=[[0,0.5],[1,0.5]];portConstraint=eastwest;" vertex="1" parent="ao9kE8kJPDlWj9Jmwbzh-1">
          <mxGeometry y="104" width="160" height="26" as="geometry" />
        </mxCell>
        <mxCell id="nBGJO_raQ8_k4aFmYe3T-2" value="updated at" style="text;strokeColor=none;fillColor=none;align=left;verticalAlign=top;spacingLeft=4;spacingRight=4;overflow=hidden;rotatable=0;points=[[0,0.5],[1,0.5]];portConstraint=eastwest;" vertex="1" parent="ao9kE8kJPDlWj9Jmwbzh-1">
          <mxGeometry y="130" width="160" height="26" as="geometry" />
        </mxCell>
        <mxCell id="nBGJO_raQ8_k4aFmYe3T-3" value="igSign id" style="text;strokeColor=none;fillColor=none;align=left;verticalAlign=top;spacingLeft=4;spacingRight=4;overflow=hidden;rotatable=0;points=[[0,0.5],[1,0.5]];portConstraint=eastwest;" vertex="1" parent="ao9kE8kJPDlWj9Jmwbzh-1">
          <mxGeometry y="156" width="160" height="26" as="geometry" />
        </mxCell>
        <mxCell id="ao9kE8kJPDlWj9Jmwbzh-4" value="" style="line;strokeWidth=1;fillColor=none;align=left;verticalAlign=middle;spacingTop=-1;spacingLeft=3;spacingRight=3;rotatable=0;labelPosition=right;points=[];portConstraint=eastwest;strokeColor=inherit;" parent="ao9kE8kJPDlWj9Jmwbzh-1" vertex="1">
          <mxGeometry y="182" width="160" height="8" as="geometry" />
        </mxCell>
        <mxCell id="ao9kE8kJPDlWj9Jmwbzh-5" value="document" style="swimlane;fontStyle=1;align=center;verticalAlign=top;childLayout=stackLayout;horizontal=1;startSize=26;horizontalStack=0;resizeParent=1;resizeParentMax=0;resizeLast=0;collapsible=1;marginBottom=0;" parent="1" vertex="1">
          <mxGeometry x="960" y="95" width="160" height="164" as="geometry" />
        </mxCell>
        <mxCell id="ao9kE8kJPDlWj9Jmwbzh-6" value="path" style="text;strokeColor=none;fillColor=none;align=left;verticalAlign=top;spacingLeft=4;spacingRight=4;overflow=hidden;rotatable=0;points=[[0,0.5],[1,0.5]];portConstraint=eastwest;" parent="ao9kE8kJPDlWj9Jmwbzh-5" vertex="1">
          <mxGeometry y="26" width="160" height="26" as="geometry" />
        </mxCell>
        <mxCell id="ao9kE8kJPDlWj9Jmwbzh-7" value="anchor" style="text;strokeColor=none;fillColor=none;align=left;verticalAlign=top;spacingLeft=4;spacingRight=4;overflow=hidden;rotatable=0;points=[[0,0.5],[1,0.5]];portConstraint=eastwest;" parent="ao9kE8kJPDlWj9Jmwbzh-5" vertex="1">
          <mxGeometry y="52" width="160" height="26" as="geometry" />
        </mxCell>
        <mxCell id="ao9kE8kJPDlWj9Jmwbzh-8" value="visible sign" style="text;strokeColor=none;fillColor=none;align=left;verticalAlign=top;spacingLeft=4;spacingRight=4;overflow=hidden;rotatable=0;points=[[0,0.5],[1,0.5]];portConstraint=eastwest;" parent="ao9kE8kJPDlWj9Jmwbzh-5" vertex="1">
          <mxGeometry y="78" width="160" height="26" as="geometry" />
        </mxCell>
        <mxCell id="ao9kE8kJPDlWj9Jmwbzh-9" value="attachment:boolean" style="text;strokeColor=none;fillColor=none;align=left;verticalAlign=top;spacingLeft=4;spacingRight=4;overflow=hidden;rotatable=0;points=[[0,0.5],[1,0.5]];portConstraint=eastwest;" parent="ao9kE8kJPDlWj9Jmwbzh-5" vertex="1">
          <mxGeometry y="104" width="160" height="26" as="geometry" />
        </mxCell>
        <mxCell id="nBGJO_raQ8_k4aFmYe3T-6" value="igSign id" style="text;strokeColor=none;fillColor=none;align=left;verticalAlign=top;spacingLeft=4;spacingRight=4;overflow=hidden;rotatable=0;points=[[0,0.5],[1,0.5]];portConstraint=eastwest;" vertex="1" parent="ao9kE8kJPDlWj9Jmwbzh-5">
          <mxGeometry y="130" width="160" height="26" as="geometry" />
        </mxCell>
        <mxCell id="ao9kE8kJPDlWj9Jmwbzh-10" value="" style="line;strokeWidth=1;fillColor=none;align=left;verticalAlign=middle;spacingTop=-1;spacingLeft=3;spacingRight=3;rotatable=0;labelPosition=right;points=[];portConstraint=eastwest;strokeColor=inherit;" parent="ao9kE8kJPDlWj9Jmwbzh-5" vertex="1">
          <mxGeometry y="156" width="160" height="8" as="geometry" />
        </mxCell>
        <mxCell id="ao9kE8kJPDlWj9Jmwbzh-11" value="signer" style="swimlane;fontStyle=1;align=center;verticalAlign=top;childLayout=stackLayout;horizontal=1;startSize=26;horizontalStack=0;resizeParent=1;resizeParentMax=0;resizeLast=0;collapsible=1;marginBottom=0;" parent="1" vertex="1">
          <mxGeometry x="290" y="500" width="160" height="216" as="geometry" />
        </mxCell>
        <mxCell id="ao9kE8kJPDlWj9Jmwbzh-12" value="name" style="text;strokeColor=none;fillColor=none;align=left;verticalAlign=top;spacingLeft=4;spacingRight=4;overflow=hidden;rotatable=0;points=[[0,0.5],[1,0.5]];portConstraint=eastwest;" parent="ao9kE8kJPDlWj9Jmwbzh-11" vertex="1">
          <mxGeometry y="26" width="160" height="26" as="geometry" />
        </mxCell>
        <mxCell id="ao9kE8kJPDlWj9Jmwbzh-13" value="user:boolean" style="text;strokeColor=none;fillColor=none;align=left;verticalAlign=top;spacingLeft=4;spacingRight=4;overflow=hidden;rotatable=0;points=[[0,0.5],[1,0.5]];portConstraint=eastwest;" parent="ao9kE8kJPDlWj9Jmwbzh-11" vertex="1">
          <mxGeometry y="52" width="160" height="26" as="geometry" />
        </mxCell>
        <mxCell id="ao9kE8kJPDlWj9Jmwbzh-14" value="phone" style="text;strokeColor=none;fillColor=none;align=left;verticalAlign=top;spacingLeft=4;spacingRight=4;overflow=hidden;rotatable=0;points=[[0,0.5],[1,0.5]];portConstraint=eastwest;" parent="ao9kE8kJPDlWj9Jmwbzh-11" vertex="1">
          <mxGeometry y="78" width="160" height="26" as="geometry" />
        </mxCell>
        <mxCell id="ao9kE8kJPDlWj9Jmwbzh-15" value="email" style="text;strokeColor=none;fillColor=none;align=left;verticalAlign=top;spacingLeft=4;spacingRight=4;overflow=hidden;rotatable=0;points=[[0,0.5],[1,0.5]];portConstraint=eastwest;" parent="ao9kE8kJPDlWj9Jmwbzh-11" vertex="1">
          <mxGeometry y="104" width="160" height="26" as="geometry" />
        </mxCell>
        <mxCell id="ao9kE8kJPDlWj9Jmwbzh-16" value="surname" style="text;strokeColor=none;fillColor=none;align=left;verticalAlign=top;spacingLeft=4;spacingRight=4;overflow=hidden;rotatable=0;points=[[0,0.5],[1,0.5]];portConstraint=eastwest;" parent="ao9kE8kJPDlWj9Jmwbzh-11" vertex="1">
          <mxGeometry y="130" width="160" height="26" as="geometry" />
        </mxCell>
        <mxCell id="ao9kE8kJPDlWj9Jmwbzh-18" value="revisioner:boolean" style="text;strokeColor=none;fillColor=none;align=left;verticalAlign=top;spacingLeft=4;spacingRight=4;overflow=hidden;rotatable=0;points=[[0,0.5],[1,0.5]];portConstraint=eastwest;" parent="ao9kE8kJPDlWj9Jmwbzh-11" vertex="1">
          <mxGeometry y="156" width="160" height="26" as="geometry" />
        </mxCell>
        <mxCell id="nBGJO_raQ8_k4aFmYe3T-5" value="igSign id" style="text;strokeColor=none;fillColor=none;align=left;verticalAlign=top;spacingLeft=4;spacingRight=4;overflow=hidden;rotatable=0;points=[[0,0.5],[1,0.5]];portConstraint=eastwest;" vertex="1" parent="ao9kE8kJPDlWj9Jmwbzh-11">
          <mxGeometry y="182" width="160" height="26" as="geometry" />
        </mxCell>
        <mxCell id="ao9kE8kJPDlWj9Jmwbzh-19" value="" style="line;strokeWidth=1;fillColor=none;align=left;verticalAlign=middle;spacingTop=-1;spacingLeft=3;spacingRight=3;rotatable=0;labelPosition=right;points=[];portConstraint=eastwest;strokeColor=inherit;" parent="ao9kE8kJPDlWj9Jmwbzh-11" vertex="1">
          <mxGeometry y="208" width="160" height="8" as="geometry" />
        </mxCell>
        <mxCell id="ao9kE8kJPDlWj9Jmwbzh-20" value="step" style="swimlane;fontStyle=1;align=center;verticalAlign=top;childLayout=stackLayout;horizontal=1;startSize=26;horizontalStack=0;resizeParent=1;resizeParentMax=0;resizeLast=0;collapsible=1;marginBottom=0;" parent="1" vertex="1">
          <mxGeometry x="290" y="220" width="160" height="86" as="geometry" />
        </mxCell>
        <mxCell id="ao9kE8kJPDlWj9Jmwbzh-21" value="order" style="text;strokeColor=none;fillColor=none;align=left;verticalAlign=top;spacingLeft=4;spacingRight=4;overflow=hidden;rotatable=0;points=[[0,0.5],[1,0.5]];portConstraint=eastwest;" parent="ao9kE8kJPDlWj9Jmwbzh-20" vertex="1">
          <mxGeometry y="26" width="160" height="26" as="geometry" />
        </mxCell>
        <mxCell id="nBGJO_raQ8_k4aFmYe3T-4" value="igSign id" style="text;strokeColor=none;fillColor=none;align=left;verticalAlign=top;spacingLeft=4;spacingRight=4;overflow=hidden;rotatable=0;points=[[0,0.5],[1,0.5]];portConstraint=eastwest;" vertex="1" parent="ao9kE8kJPDlWj9Jmwbzh-20">
          <mxGeometry y="52" width="160" height="26" as="geometry" />
        </mxCell>
        <mxCell id="ao9kE8kJPDlWj9Jmwbzh-22" value="" style="line;strokeWidth=1;fillColor=none;align=left;verticalAlign=middle;spacingTop=-1;spacingLeft=3;spacingRight=3;rotatable=0;labelPosition=right;points=[];portConstraint=eastwest;strokeColor=inherit;" parent="ao9kE8kJPDlWj9Jmwbzh-20" vertex="1">
          <mxGeometry y="78" width="160" height="8" as="geometry" />
        </mxCell>
        <mxCell id="ao9kE8kJPDlWj9Jmwbzh-23" value="coordinate" style="swimlane;fontStyle=1;align=center;verticalAlign=top;childLayout=stackLayout;horizontal=1;startSize=26;horizontalStack=0;resizeParent=1;resizeParentMax=0;resizeLast=0;collapsible=1;marginBottom=0;" parent="1" vertex="1">
          <mxGeometry x="660" y="500" width="160" height="138" as="geometry" />
        </mxCell>
        <mxCell id="ao9kE8kJPDlWj9Jmwbzh-24" value="x" style="text;strokeColor=none;fillColor=none;align=left;verticalAlign=top;spacingLeft=4;spacingRight=4;overflow=hidden;rotatable=0;points=[[0,0.5],[1,0.5]];portConstraint=eastwest;" parent="ao9kE8kJPDlWj9Jmwbzh-23" vertex="1">
          <mxGeometry y="26" width="160" height="26" as="geometry" />
        </mxCell>
        <mxCell id="ao9kE8kJPDlWj9Jmwbzh-25" value="y" style="text;strokeColor=none;fillColor=none;align=left;verticalAlign=top;spacingLeft=4;spacingRight=4;overflow=hidden;rotatable=0;points=[[0,0.5],[1,0.5]];portConstraint=eastwest;" parent="ao9kE8kJPDlWj9Jmwbzh-23" vertex="1">
          <mxGeometry y="52" width="160" height="26" as="geometry" />
        </mxCell>
        <mxCell id="ao9kE8kJPDlWj9Jmwbzh-26" value="cx" style="text;strokeColor=none;fillColor=none;align=left;verticalAlign=top;spacingLeft=4;spacingRight=4;overflow=hidden;rotatable=0;points=[[0,0.5],[1,0.5]];portConstraint=eastwest;" parent="ao9kE8kJPDlWj9Jmwbzh-23" vertex="1">
          <mxGeometry y="78" width="160" height="26" as="geometry" />
        </mxCell>
        <mxCell id="ao9kE8kJPDlWj9Jmwbzh-27" value="cy" style="text;strokeColor=none;fillColor=none;align=left;verticalAlign=top;spacingLeft=4;spacingRight=4;overflow=hidden;rotatable=0;points=[[0,0.5],[1,0.5]];portConstraint=eastwest;" parent="ao9kE8kJPDlWj9Jmwbzh-23" vertex="1">
          <mxGeometry y="104" width="160" height="26" as="geometry" />
        </mxCell>
        <mxCell id="ao9kE8kJPDlWj9Jmwbzh-28" value="" style="line;strokeWidth=1;fillColor=none;align=left;verticalAlign=middle;spacingTop=-1;spacingLeft=3;spacingRight=3;rotatable=0;labelPosition=right;points=[];portConstraint=eastwest;strokeColor=inherit;" parent="ao9kE8kJPDlWj9Jmwbzh-23" vertex="1">
          <mxGeometry y="130" width="160" height="8" as="geometry" />
        </mxCell>
        <mxCell id="ao9kE8kJPDlWj9Jmwbzh-29" value="1" style="endArrow=open;html=1;endSize=12;startArrow=diamondThin;startSize=14;startFill=1;edgeStyle=orthogonalEdgeStyle;align=left;verticalAlign=bottom;rounded=0;exitX=0.5;exitY=1;exitDx=0;exitDy=0;entryX=0.5;entryY=0;entryDx=0;entryDy=0;" parent="1" source="ao9kE8kJPDlWj9Jmwbzh-20" target="ao9kE8kJPDlWj9Jmwbzh-11" edge="1">
          <mxGeometry x="-0.8182" y="10" relative="1" as="geometry">
            <mxPoint x="340" y="430" as="sourcePoint" />
            <mxPoint x="500" y="430" as="targetPoint" />
            <mxPoint as="offset" />
          </mxGeometry>
        </mxCell>
        <mxCell id="ao9kE8kJPDlWj9Jmwbzh-30" value="1" style="endArrow=open;html=1;endSize=12;startArrow=diamondThin;startSize=14;startFill=1;edgeStyle=orthogonalEdgeStyle;align=left;verticalAlign=bottom;rounded=0;exitX=0.25;exitY=1;exitDx=0;exitDy=0;entryX=0.5;entryY=0;entryDx=0;entryDy=0;" parent="1" source="ao9kE8kJPDlWj9Jmwbzh-1" target="ao9kE8kJPDlWj9Jmwbzh-20" edge="1">
          <mxGeometry x="-1" y="3" relative="1" as="geometry">
            <mxPoint x="350" y="440" as="sourcePoint" />
            <mxPoint x="510" y="440" as="targetPoint" />
          </mxGeometry>
        </mxCell>
        <mxCell id="ao9kE8kJPDlWj9Jmwbzh-31" value="1" style="endArrow=open;html=1;endSize=12;startArrow=diamondThin;startSize=14;startFill=1;edgeStyle=orthogonalEdgeStyle;align=left;verticalAlign=bottom;rounded=0;exitX=1;exitY=0.5;exitDx=0;exitDy=0;entryX=0.444;entryY=1;entryDx=0;entryDy=0;entryPerimeter=0;" parent="1" source="ao9kE8kJPDlWj9Jmwbzh-20" target="ao9kE8kJPDlWj9Jmwbzh-10" edge="1">
          <mxGeometry x="-1" y="3" relative="1" as="geometry">
            <mxPoint x="416.96000000000004" y="118.00199999999995" as="sourcePoint" />
            <mxPoint x="696.96" y="285.01199999999994" as="targetPoint" />
            <Array as="points">
              <mxPoint x="600" y="263" />
              <mxPoint x="600" y="290" />
              <mxPoint x="1031" y="290" />
            </Array>
          </mxGeometry>
        </mxCell>
        <mxCell id="ao9kE8kJPDlWj9Jmwbzh-32" value="1" style="endArrow=open;html=1;endSize=12;startArrow=diamondThin;startSize=14;startFill=1;edgeStyle=orthogonalEdgeStyle;align=left;verticalAlign=bottom;rounded=0;entryX=0.5;entryY=0;entryDx=0;entryDy=0;exitX=1;exitY=0.25;exitDx=0;exitDy=0;" parent="1" source="ao9kE8kJPDlWj9Jmwbzh-1" target="ao9kE8kJPDlWj9Jmwbzh-5" edge="1">
          <mxGeometry x="-1" y="3" relative="1" as="geometry">
            <mxPoint x="412" y="116" as="sourcePoint" />
            <mxPoint x="710" y="210" as="targetPoint" />
          </mxGeometry>
        </mxCell>
        <mxCell id="ao9kE8kJPDlWj9Jmwbzh-33" value="" style="endArrow=open;endFill=1;endSize=12;html=1;rounded=0;exitX=1;exitY=0;exitDx=0;exitDy=0;entryX=0;entryY=0;entryDx=0;entryDy=0;" parent="1" source="ao9kE8kJPDlWj9Jmwbzh-11" target="ao9kE8kJPDlWj9Jmwbzh-23" edge="1">
          <mxGeometry width="160" relative="1" as="geometry">
            <mxPoint x="480" y="420" as="sourcePoint" />
            <mxPoint x="640" y="420" as="targetPoint" />
          </mxGeometry>
        </mxCell>
        <mxCell id="ao9kE8kJPDlWj9Jmwbzh-34" value="" style="endArrow=open;endFill=1;endSize=12;html=1;rounded=0;exitX=0.75;exitY=1;exitDx=0;exitDy=0;entryX=1;entryY=0;entryDx=0;entryDy=0;" parent="1" source="ao9kE8kJPDlWj9Jmwbzh-5" target="ao9kE8kJPDlWj9Jmwbzh-23" edge="1">
          <mxGeometry width="160" relative="1" as="geometry">
            <mxPoint x="460" y="510" as="sourcePoint" />
            <mxPoint x="880" y="490" as="targetPoint" />
            <Array as="points">
              <mxPoint x="1080" y="500" />
            </Array>
          </mxGeometry>
        </mxCell>
        <mxCell id="ao9kE8kJPDlWj9Jmwbzh-35" value="firma_listino_hystory" style="swimlane;fontStyle=1;align=center;verticalAlign=top;childLayout=stackLayout;horizontal=1;startSize=26;horizontalStack=0;resizeParent=1;resizeParentMax=0;resizeLast=0;collapsible=1;marginBottom=0;" parent="1" vertex="1">
          <mxGeometry x="850" y="-307" width="160" height="86" as="geometry" />
        </mxCell>
        <mxCell id="ao9kE8kJPDlWj9Jmwbzh-36" value="prezzo" style="text;strokeColor=none;fillColor=none;align=left;verticalAlign=top;spacingLeft=4;spacingRight=4;overflow=hidden;rotatable=0;points=[[0,0.5],[1,0.5]];portConstraint=eastwest;" parent="ao9kE8kJPDlWj9Jmwbzh-35" vertex="1">
          <mxGeometry y="26" width="160" height="26" as="geometry" />
        </mxCell>
        <mxCell id="ao9kE8kJPDlWj9Jmwbzh-37" value="utente_modifica" style="text;strokeColor=none;fillColor=none;align=left;verticalAlign=top;spacingLeft=4;spacingRight=4;overflow=hidden;rotatable=0;points=[[0,0.5],[1,0.5]];portConstraint=eastwest;" parent="ao9kE8kJPDlWj9Jmwbzh-35" vertex="1">
          <mxGeometry y="52" width="160" height="26" as="geometry" />
        </mxCell>
        <mxCell id="ao9kE8kJPDlWj9Jmwbzh-38" value="" style="line;strokeWidth=1;fillColor=none;align=left;verticalAlign=middle;spacingTop=-1;spacingLeft=3;spacingRight=3;rotatable=0;labelPosition=right;points=[];portConstraint=eastwest;strokeColor=inherit;" parent="ao9kE8kJPDlWj9Jmwbzh-35" vertex="1">
          <mxGeometry y="78" width="160" height="8" as="geometry" />
        </mxCell>
        <mxCell id="ao9kE8kJPDlWj9Jmwbzh-39" value="firma_listino" style="swimlane;fontStyle=1;align=center;verticalAlign=top;childLayout=stackLayout;horizontal=1;startSize=26;horizontalStack=0;resizeParent=1;resizeParentMax=0;resizeLast=0;collapsible=1;marginBottom=0;" parent="1" vertex="1">
          <mxGeometry x="600" y="-300" width="160" height="86" as="geometry" />
        </mxCell>
        <mxCell id="ao9kE8kJPDlWj9Jmwbzh-40" value="tipologia&#xa;" style="text;strokeColor=none;fillColor=none;align=left;verticalAlign=top;spacingLeft=4;spacingRight=4;overflow=hidden;rotatable=0;points=[[0,0.5],[1,0.5]];portConstraint=eastwest;" parent="ao9kE8kJPDlWj9Jmwbzh-39" vertex="1">
          <mxGeometry y="26" width="160" height="26" as="geometry" />
        </mxCell>
        <mxCell id="ao9kE8kJPDlWj9Jmwbzh-41" value="prezzo" style="text;strokeColor=none;fillColor=none;align=left;verticalAlign=top;spacingLeft=4;spacingRight=4;overflow=hidden;rotatable=0;points=[[0,0.5],[1,0.5]];portConstraint=eastwest;" parent="ao9kE8kJPDlWj9Jmwbzh-39" vertex="1">
          <mxGeometry y="52" width="160" height="26" as="geometry" />
        </mxCell>
        <mxCell id="ao9kE8kJPDlWj9Jmwbzh-42" value="" style="line;strokeWidth=1;fillColor=none;align=left;verticalAlign=middle;spacingTop=-1;spacingLeft=3;spacingRight=3;rotatable=0;labelPosition=right;points=[];portConstraint=eastwest;strokeColor=inherit;" parent="ao9kE8kJPDlWj9Jmwbzh-39" vertex="1">
          <mxGeometry y="78" width="160" height="8" as="geometry" />
        </mxCell>
        <mxCell id="ao9kE8kJPDlWj9Jmwbzh-43" value="firma_tipo_utilizzo" style="swimlane;fontStyle=1;align=center;verticalAlign=top;childLayout=stackLayout;horizontal=1;startSize=26;horizontalStack=0;resizeParent=1;resizeParentMax=0;resizeLast=0;collapsible=1;marginBottom=0;" parent="1" vertex="1">
          <mxGeometry x="60" y="-40" width="160" height="60" as="geometry" />
        </mxCell>
        <mxCell id="ao9kE8kJPDlWj9Jmwbzh-44" value="funzionalità" style="text;strokeColor=none;fillColor=none;align=left;verticalAlign=top;spacingLeft=4;spacingRight=4;overflow=hidden;rotatable=0;points=[[0,0.5],[1,0.5]];portConstraint=eastwest;" parent="ao9kE8kJPDlWj9Jmwbzh-43" vertex="1">
          <mxGeometry y="26" width="160" height="26" as="geometry" />
        </mxCell>
        <mxCell id="ao9kE8kJPDlWj9Jmwbzh-45" value="" style="line;strokeWidth=1;fillColor=none;align=left;verticalAlign=middle;spacingTop=-1;spacingLeft=3;spacingRight=3;rotatable=0;labelPosition=right;points=[];portConstraint=eastwest;strokeColor=inherit;" parent="ao9kE8kJPDlWj9Jmwbzh-43" vertex="1">
          <mxGeometry y="52" width="160" height="8" as="geometry" />
        </mxCell>
        <mxCell id="ao9kE8kJPDlWj9Jmwbzh-46" value="firma_tipo_utilizzo_firma_listino" style="swimlane;fontStyle=1;align=center;verticalAlign=top;childLayout=stackLayout;horizontal=1;startSize=26;horizontalStack=0;resizeParent=1;resizeParentMax=0;resizeLast=0;collapsible=1;marginBottom=0;" parent="1" vertex="1">
          <mxGeometry x="345" y="-287" width="195" height="34" as="geometry" />
        </mxCell>
        <mxCell id="ao9kE8kJPDlWj9Jmwbzh-47" value="" style="line;strokeWidth=1;fillColor=none;align=left;verticalAlign=middle;spacingTop=-1;spacingLeft=3;spacingRight=3;rotatable=0;labelPosition=right;points=[];portConstraint=eastwest;strokeColor=inherit;" parent="ao9kE8kJPDlWj9Jmwbzh-46" vertex="1">
          <mxGeometry y="26" width="195" height="8" as="geometry" />
        </mxCell>
        <mxCell id="ao9kE8kJPDlWj9Jmwbzh-48" value="categoria" style="swimlane;fontStyle=1;align=center;verticalAlign=top;childLayout=stackLayout;horizontal=1;startSize=26;horizontalStack=0;resizeParent=1;resizeParentMax=0;resizeLast=0;collapsible=1;marginBottom=0;" parent="1" vertex="1">
          <mxGeometry x="120" y="-300" width="160" height="34" as="geometry" />
        </mxCell>
        <mxCell id="ao9kE8kJPDlWj9Jmwbzh-49" value="" style="line;strokeWidth=1;fillColor=none;align=left;verticalAlign=middle;spacingTop=-1;spacingLeft=3;spacingRight=3;rotatable=0;labelPosition=right;points=[];portConstraint=eastwest;strokeColor=inherit;" parent="ao9kE8kJPDlWj9Jmwbzh-48" vertex="1">
          <mxGeometry y="26" width="160" height="8" as="geometry" />
        </mxCell>
        <mxCell id="ao9kE8kJPDlWj9Jmwbzh-50" value="categoria_firma_tipo_utilizzo" style="swimlane;fontStyle=1;align=center;verticalAlign=top;childLayout=stackLayout;horizontal=1;startSize=26;horizontalStack=0;resizeParent=1;resizeParentMax=0;resizeLast=0;collapsible=1;marginBottom=0;" parent="1" vertex="1">
          <mxGeometry x="100" y="-170" width="160" height="34" as="geometry" />
        </mxCell>
        <mxCell id="ao9kE8kJPDlWj9Jmwbzh-51" value="" style="line;strokeWidth=1;fillColor=none;align=left;verticalAlign=middle;spacingTop=-1;spacingLeft=3;spacingRight=3;rotatable=0;labelPosition=right;points=[];portConstraint=eastwest;strokeColor=inherit;" parent="ao9kE8kJPDlWj9Jmwbzh-50" vertex="1">
          <mxGeometry y="26" width="160" height="8" as="geometry" />
        </mxCell>
        <mxCell id="ao9kE8kJPDlWj9Jmwbzh-52" value="" style="endArrow=open;endFill=1;endSize=12;html=1;rounded=0;exitX=0.5;exitY=1;exitDx=0;exitDy=0;entryX=0.5;entryY=0;entryDx=0;entryDy=0;" parent="1" source="ao9kE8kJPDlWj9Jmwbzh-48" target="ao9kE8kJPDlWj9Jmwbzh-50" edge="1">
          <mxGeometry width="160" relative="1" as="geometry">
            <mxPoint x="340" y="60" as="sourcePoint" />
            <mxPoint x="500" y="60" as="targetPoint" />
          </mxGeometry>
        </mxCell>
        <mxCell id="ao9kE8kJPDlWj9Jmwbzh-53" value="" style="endArrow=open;endFill=1;endSize=12;html=1;rounded=0;exitX=0.5;exitY=0;exitDx=0;exitDy=0;entryX=0.5;entryY=1;entryDx=0;entryDy=0;entryPerimeter=0;" parent="1" source="ao9kE8kJPDlWj9Jmwbzh-43" target="ao9kE8kJPDlWj9Jmwbzh-51" edge="1">
          <mxGeometry width="160" relative="1" as="geometry">
            <mxPoint x="110" y="-230" as="sourcePoint" />
            <mxPoint x="190" y="-160" as="targetPoint" />
          </mxGeometry>
        </mxCell>
        <mxCell id="ao9kE8kJPDlWj9Jmwbzh-54" value="" style="endArrow=open;endFill=1;endSize=12;html=1;rounded=0;entryX=0;entryY=0.5;entryDx=0;entryDy=0;exitX=1;exitY=0.25;exitDx=0;exitDy=0;" parent="1" source="ao9kE8kJPDlWj9Jmwbzh-43" target="ao9kE8kJPDlWj9Jmwbzh-46" edge="1">
          <mxGeometry width="160" relative="1" as="geometry">
            <mxPoint x="280" y="-50" as="sourcePoint" />
            <mxPoint x="190" y="-100" as="targetPoint" />
          </mxGeometry>
        </mxCell>
        <mxCell id="ao9kE8kJPDlWj9Jmwbzh-55" value="" style="endArrow=open;endFill=1;endSize=12;html=1;rounded=0;entryX=1;entryY=0.5;entryDx=0;entryDy=0;exitX=0;exitY=0.25;exitDx=0;exitDy=0;" parent="1" source="ao9kE8kJPDlWj9Jmwbzh-39" target="ao9kE8kJPDlWj9Jmwbzh-46" edge="1">
          <mxGeometry width="160" relative="1" as="geometry">
            <mxPoint x="230" y="-15" as="sourcePoint" />
            <mxPoint x="400" y="-203" as="targetPoint" />
          </mxGeometry>
        </mxCell>
        <mxCell id="ao9kE8kJPDlWj9Jmwbzh-56" value="" style="endArrow=open;endFill=1;endSize=12;html=1;rounded=0;exitX=1;exitY=0.5;exitDx=0;exitDy=0;" parent="1" source="ao9kE8kJPDlWj9Jmwbzh-44" target="ao9kE8kJPDlWj9Jmwbzh-1" edge="1">
          <mxGeometry width="160" relative="1" as="geometry">
            <mxPoint x="230" y="-15" as="sourcePoint" />
            <mxPoint x="400" y="-203" as="targetPoint" />
          </mxGeometry>
        </mxCell>
        <mxCell id="ao9kE8kJPDlWj9Jmwbzh-57" value="" style="endArrow=open;endFill=1;endSize=12;html=1;rounded=0;exitX=1;exitY=0.25;exitDx=0;exitDy=0;entryX=0.5;entryY=0;entryDx=0;entryDy=0;" parent="1" source="ao9kE8kJPDlWj9Jmwbzh-48" target="ao9kE8kJPDlWj9Jmwbzh-1" edge="1">
          <mxGeometry width="160" relative="1" as="geometry">
            <mxPoint x="230" y="9" as="sourcePoint" />
            <mxPoint x="340" y="46.052631578947285" as="targetPoint" />
          </mxGeometry>
        </mxCell>
        <mxCell id="ao9kE8kJPDlWj9Jmwbzh-58" value="" style="endArrow=open;endFill=1;endSize=12;html=1;rounded=0;exitX=0.5;exitY=1;exitDx=0;exitDy=0;entryX=0.5;entryY=0;entryDx=0;entryDy=0;" parent="1" source="ao9kE8kJPDlWj9Jmwbzh-39" target="ao9kE8kJPDlWj9Jmwbzh-1" edge="1">
          <mxGeometry width="160" relative="1" as="geometry">
            <mxPoint x="190" y="-275" as="sourcePoint" />
            <mxPoint x="420" y="30" as="targetPoint" />
          </mxGeometry>
        </mxCell>
        <mxCell id="ao9kE8kJPDlWj9Jmwbzh-59" value="1" style="text;html=1;align=center;verticalAlign=middle;resizable=0;points=[];autosize=1;strokeColor=none;fillColor=none;" parent="1" vertex="1">
          <mxGeometry x="175" y="-245" width="30" height="30" as="geometry" />
        </mxCell>
        <mxCell id="ao9kE8kJPDlWj9Jmwbzh-60" value="n" style="text;html=1;align=center;verticalAlign=middle;resizable=0;points=[];autosize=1;strokeColor=none;fillColor=none;" parent="1" vertex="1">
          <mxGeometry x="155" y="-195" width="30" height="30" as="geometry" />
        </mxCell>
        <mxCell id="ao9kE8kJPDlWj9Jmwbzh-61" value="1" style="text;html=1;align=center;verticalAlign=middle;resizable=0;points=[];autosize=1;strokeColor=none;fillColor=none;" parent="1" vertex="1">
          <mxGeometry x="105" y="-65" width="30" height="30" as="geometry" />
        </mxCell>
        <mxCell id="ao9kE8kJPDlWj9Jmwbzh-62" value="n" style="text;html=1;align=center;verticalAlign=middle;resizable=0;points=[];autosize=1;strokeColor=none;fillColor=none;" parent="1" vertex="1">
          <mxGeometry x="145" y="-115" width="30" height="30" as="geometry" />
        </mxCell>
        <mxCell id="ao9kE8kJPDlWj9Jmwbzh-63" value="1" style="text;html=1;align=center;verticalAlign=middle;resizable=0;points=[];autosize=1;strokeColor=none;fillColor=none;" parent="1" vertex="1">
          <mxGeometry x="215" y="-25" width="30" height="30" as="geometry" />
        </mxCell>
        <mxCell id="ao9kE8kJPDlWj9Jmwbzh-64" value="n" style="text;html=1;align=center;verticalAlign=middle;resizable=0;points=[];autosize=1;strokeColor=none;fillColor=none;" parent="1" vertex="1">
          <mxGeometry x="305" y="5" width="30" height="30" as="geometry" />
        </mxCell>
        <mxCell id="ao9kE8kJPDlWj9Jmwbzh-65" value="1" style="text;html=1;align=center;verticalAlign=middle;resizable=0;points=[];autosize=1;strokeColor=none;fillColor=none;" parent="1" vertex="1">
          <mxGeometry x="205" y="-65" width="30" height="30" as="geometry" />
        </mxCell>
        <mxCell id="ao9kE8kJPDlWj9Jmwbzh-66" value="n" style="text;html=1;align=center;verticalAlign=middle;resizable=0;points=[];autosize=1;strokeColor=none;fillColor=none;" parent="1" vertex="1">
          <mxGeometry x="335" y="-255" width="30" height="30" as="geometry" />
        </mxCell>
        <mxCell id="ao9kE8kJPDlWj9Jmwbzh-67" value="1" style="text;html=1;align=center;verticalAlign=middle;resizable=0;points=[];autosize=1;strokeColor=none;fillColor=none;" parent="1" vertex="1">
          <mxGeometry x="285" y="-295" width="30" height="30" as="geometry" />
        </mxCell>
        <mxCell id="ao9kE8kJPDlWj9Jmwbzh-68" value="n" style="text;html=1;align=center;verticalAlign=middle;resizable=0;points=[];autosize=1;strokeColor=none;fillColor=none;" parent="1" vertex="1">
          <mxGeometry x="365" y="-25" width="30" height="30" as="geometry" />
        </mxCell>
        <mxCell id="ao9kE8kJPDlWj9Jmwbzh-69" value="1" style="text;html=1;align=center;verticalAlign=middle;resizable=0;points=[];autosize=1;strokeColor=none;fillColor=none;" parent="1" vertex="1">
          <mxGeometry x="675" y="-215" width="30" height="30" as="geometry" />
        </mxCell>
        <mxCell id="ao9kE8kJPDlWj9Jmwbzh-70" value="n" style="text;html=1;align=center;verticalAlign=middle;resizable=0;points=[];autosize=1;strokeColor=none;fillColor=none;" parent="1" vertex="1">
          <mxGeometry x="435" y="-5" width="30" height="30" as="geometry" />
        </mxCell>
        <mxCell id="ao9kE8kJPDlWj9Jmwbzh-71" value="utenti_gu" style="swimlane;fontStyle=1;align=center;verticalAlign=top;childLayout=stackLayout;horizontal=1;startSize=26;horizontalStack=0;resizeParent=1;resizeParentMax=0;resizeLast=0;collapsible=1;marginBottom=0;" parent="1" vertex="1">
          <mxGeometry x="60" y="120" width="160" height="34" as="geometry" />
        </mxCell>
        <mxCell id="ao9kE8kJPDlWj9Jmwbzh-72" value="" style="line;strokeWidth=1;fillColor=none;align=left;verticalAlign=middle;spacingTop=-1;spacingLeft=3;spacingRight=3;rotatable=0;labelPosition=right;points=[];portConstraint=eastwest;strokeColor=inherit;" parent="ao9kE8kJPDlWj9Jmwbzh-71" vertex="1">
          <mxGeometry y="26" width="160" height="8" as="geometry" />
        </mxCell>
        <mxCell id="ao9kE8kJPDlWj9Jmwbzh-73" value="" style="endArrow=open;endFill=1;endSize=12;html=1;rounded=0;exitX=0.75;exitY=0;exitDx=0;exitDy=0;entryX=0;entryY=0.5;entryDx=0;entryDy=0;" parent="1" source="ao9kE8kJPDlWj9Jmwbzh-71" target="ao9kE8kJPDlWj9Jmwbzh-2" edge="1">
          <mxGeometry width="160" relative="1" as="geometry">
            <mxPoint x="230" y="9" as="sourcePoint" />
            <mxPoint x="340" y="46.052631578947285" as="targetPoint" />
          </mxGeometry>
        </mxCell>
        <mxCell id="ao9kE8kJPDlWj9Jmwbzh-74" value="1" style="text;html=1;align=center;verticalAlign=middle;resizable=0;points=[];autosize=1;strokeColor=none;fillColor=none;" parent="1" vertex="1">
          <mxGeometry x="165" y="95" width="30" height="30" as="geometry" />
        </mxCell>
        <mxCell id="ao9kE8kJPDlWj9Jmwbzh-75" value="n" style="text;html=1;align=center;verticalAlign=middle;resizable=0;points=[];autosize=1;strokeColor=none;fillColor=none;" parent="1" vertex="1">
          <mxGeometry x="285" y="45" width="30" height="30" as="geometry" />
        </mxCell>
        <mxCell id="ao9kE8kJPDlWj9Jmwbzh-76" value="" style="endArrow=open;endFill=1;endSize=12;html=1;rounded=0;exitX=1;exitY=0.25;exitDx=0;exitDy=0;entryX=0.013;entryY=0.116;entryDx=0;entryDy=0;entryPerimeter=0;" parent="1" source="ao9kE8kJPDlWj9Jmwbzh-39" target="ao9kE8kJPDlWj9Jmwbzh-35" edge="1">
          <mxGeometry width="160" relative="1" as="geometry">
            <mxPoint x="690" y="-204" as="sourcePoint" />
            <mxPoint x="420" y="30" as="targetPoint" />
          </mxGeometry>
        </mxCell>
        <mxCell id="ao9kE8kJPDlWj9Jmwbzh-77" value="1" style="text;html=1;align=center;verticalAlign=middle;resizable=0;points=[];autosize=1;strokeColor=none;fillColor=none;" parent="1" vertex="1">
          <mxGeometry x="755" y="-305" width="30" height="30" as="geometry" />
        </mxCell>
        <mxCell id="ao9kE8kJPDlWj9Jmwbzh-78" value="n" style="text;html=1;align=center;verticalAlign=middle;resizable=0;points=[];autosize=1;strokeColor=none;fillColor=none;" parent="1" vertex="1">
          <mxGeometry x="825" y="-295" width="30" height="30" as="geometry" />
        </mxCell>
        <mxCell id="ao9kE8kJPDlWj9Jmwbzh-79" value="1" style="text;html=1;align=center;verticalAlign=middle;resizable=0;points=[];autosize=1;strokeColor=none;fillColor=none;" parent="1" vertex="1">
          <mxGeometry x="455" y="495" width="30" height="30" as="geometry" />
        </mxCell>
        <mxCell id="ao9kE8kJPDlWj9Jmwbzh-80" value="n" style="text;html=1;align=center;verticalAlign=middle;resizable=0;points=[];autosize=1;strokeColor=none;fillColor=none;" parent="1" vertex="1">
          <mxGeometry x="625" y="495" width="30" height="30" as="geometry" />
        </mxCell>
        <mxCell id="ao9kE8kJPDlWj9Jmwbzh-81" value="1" style="text;html=1;align=center;verticalAlign=middle;resizable=0;points=[];autosize=1;strokeColor=none;fillColor=none;" parent="1" vertex="1">
          <mxGeometry x="1080" y="235" width="30" height="30" as="geometry" />
        </mxCell>
        <mxCell id="ao9kE8kJPDlWj9Jmwbzh-82" value="n" style="text;html=1;align=center;verticalAlign=middle;resizable=0;points=[];autosize=1;strokeColor=none;fillColor=none;" parent="1" vertex="1">
          <mxGeometry x="850" y="500" width="30" height="30" as="geometry" />
        </mxCell>
      </root>
    </mxGraphModel>
  </diagram>
</mxfile>
